<!DOCTYPE svg PUBLIC "-//W3C//DTD SVG 1.1//EN" "http://www.w3.org/Graphics/SVG/1.1/DTD/svg11.dtd">
<!-- Uploaded to: SVG Repo, www.svgrepo.com, Transformed by: SVG Repo Mixer Tools -->
<svg fill="#292929" width="800px" height="800px" viewBox="0 0 512 512" xmlns="http://www.w3.org/2000/svg" stroke="#292929">
<g id="SVGRepo_bgCarrier" stroke-width="0"/>
<g id="SVGRepo_tracerCarrier" stroke-linecap="round" stroke-linejoin="round"/>
<g id="SVGRepo_iconCarrier">
<title>ionicons-v5-g</title>
<path d="M256,400a48,48,0,1,0,48,48,48,48,0,0,0-48-48Z"/>
<path d="M256,272a48,48,0,1,0,48,48,48,48,0,0,0-48-48Z"/>
<path d="M256,144a48,48,0,1,0,48,48,48,48,0,0,0-48-48Z"/>
<path d="M256,16a48,48,0,1,0,48,48,48,48,0,0,0-48-48Z"/>
<path d="M384,272a48,48,0,1,0,48,48,48,48,0,0,0-48-48Z"/>
<path d="M384,144a48,48,0,1,0,48,48,48,48,0,0,0-48-48Z"/>
<path d="M384,16a48,48,0,1,0,48,48,48,48,0,0,0-48-48Z"/>
<path d="M128,272a48,48,0,1,0,48,48,48,48,0,0,0-48-48Z"/>
<path d="M128,144a48,48,0,1,0,48,48,48,48,0,0,0-48-48Z"/>
<path d="M128,16a48,48,0,1,0,48,48,48,48,0,0,0-48-48Z"/>
</g>
</svg>